<mxfile host="app.diagrams.net" agent="Mozilla/5.0 (Windows NT 10.0; Win64; x64) AppleWebKit/537.36 (KHTML, like Gecko) Chrome/132.0.0.0 Safari/537.36" version="26.0.10">
  <diagram name="Page-1" id="eUnFPw1mt-vrqE5m07ex">
    <mxGraphModel dx="880" dy="426" grid="1" gridSize="10" guides="1" tooltips="1" connect="1" arrows="1" fold="1" page="1" pageScale="1" pageWidth="827" pageHeight="1169" math="0" shadow="0">
      <root>
        <mxCell id="0" />
        <mxCell id="1" parent="0" />
        <mxCell id="lyjgaAO7i9xLrmSXKShT-5" value="" style="edgeStyle=orthogonalEdgeStyle;rounded=0;orthogonalLoop=1;jettySize=auto;html=1;" edge="1" parent="1" source="lyjgaAO7i9xLrmSXKShT-1" target="lyjgaAO7i9xLrmSXKShT-2">
          <mxGeometry relative="1" as="geometry" />
        </mxCell>
        <mxCell id="lyjgaAO7i9xLrmSXKShT-1" value="Network&lt;div&gt;&amp;nbsp;traffic&lt;div&gt;&lt;br&gt;&lt;/div&gt;&lt;/div&gt;" style="image;aspect=fixed;html=1;points=[];align=center;fontSize=12;image=img/lib/azure2/networking/Traffic_Manager_Profiles.svg;" vertex="1" parent="1">
          <mxGeometry x="40" y="170" width="68" height="68" as="geometry" />
        </mxCell>
        <mxCell id="lyjgaAO7i9xLrmSXKShT-6" value="" style="edgeStyle=orthogonalEdgeStyle;rounded=0;orthogonalLoop=1;jettySize=auto;html=1;" edge="1" parent="1" source="lyjgaAO7i9xLrmSXKShT-2" target="lyjgaAO7i9xLrmSXKShT-4">
          <mxGeometry relative="1" as="geometry" />
        </mxCell>
        <mxCell id="lyjgaAO7i9xLrmSXKShT-2" value="Rl agent(IDS)" style="rounded=0;whiteSpace=wrap;html=1;fillColor=#dae8fc;strokeColor=#6c8ebf;" vertex="1" parent="1">
          <mxGeometry x="170" y="178" width="120" height="60" as="geometry" />
        </mxCell>
        <mxCell id="lyjgaAO7i9xLrmSXKShT-3" value="Dynamic set" style="shape=datastore;whiteSpace=wrap;html=1;fillColor=#dae8fc;strokeColor=#6c8ebf;" vertex="1" parent="1">
          <mxGeometry x="320" y="320" width="60" height="70" as="geometry" />
        </mxCell>
        <mxCell id="lyjgaAO7i9xLrmSXKShT-7" value="" style="edgeStyle=orthogonalEdgeStyle;rounded=0;orthogonalLoop=1;jettySize=auto;html=1;" edge="1" parent="1" source="lyjgaAO7i9xLrmSXKShT-4" target="lyjgaAO7i9xLrmSXKShT-3">
          <mxGeometry relative="1" as="geometry" />
        </mxCell>
        <mxCell id="lyjgaAO7i9xLrmSXKShT-4" value="Auto encoder" style="rounded=0;whiteSpace=wrap;html=1;fillColor=#dae8fc;strokeColor=#6c8ebf;" vertex="1" parent="1">
          <mxGeometry x="350" y="178" width="120" height="60" as="geometry" />
        </mxCell>
        <mxCell id="lyjgaAO7i9xLrmSXKShT-8" value="" style="endArrow=classic;html=1;rounded=0;exitX=0;exitY=0.5;exitDx=0;exitDy=0;entryX=0.45;entryY=1;entryDx=0;entryDy=0;entryPerimeter=0;" edge="1" parent="1" source="lyjgaAO7i9xLrmSXKShT-3" target="lyjgaAO7i9xLrmSXKShT-2">
          <mxGeometry width="50" height="50" relative="1" as="geometry">
            <mxPoint x="205" y="380" as="sourcePoint" />
            <mxPoint x="220" y="260" as="targetPoint" />
            <Array as="points">
              <mxPoint x="224" y="355" />
            </Array>
          </mxGeometry>
        </mxCell>
      </root>
    </mxGraphModel>
  </diagram>
</mxfile>
